<svg width="32" height="32" viewBox="0 0 32 32" fill="none" xmlns="http://www.w3.org/2000/svg">
<path d="M16.0057 0.00329607C9.60366 0.00236293 3.81767 3.81843 1.29786 9.70367L1.09844 9.76979L1.17575 10.0017C-2.14195 18.1844 1.80182 27.5074 9.98452 30.8251C11.8957 31.6 13.9386 31.9978 16.0009 31.9966C24.8356 31.998 31.9987 24.8371 32 16.0024C32.0013 7.16767 24.8404 0.00456247 16.0057 0.00329607ZM28.5532 24.0652L27.7318 23.2443V21.3322C27.7328 21.2497 27.7145 21.1681 27.6785 21.0938L25.5989 16.9406V14.9335C25.5989 14.7553 25.51 14.5888 25.3616 14.4899L23.762 13.4234C23.6366 13.3397 23.4816 13.313 23.3354 13.3498L21.3763 13.8393L18.0858 12.4274L17.6331 9.25577L18.8878 8.00163H21.5811L22.4876 9.36401C22.5694 9.48652 22.6984 9.56977 22.8438 9.59383L26.0431 10.1271C26.1288 10.1414 26.2167 10.1345 26.2991 10.1068L29.2456 9.12459C31.7171 13.8673 31.4527 19.5715 28.5532 24.0652ZM26.354 5.25767L25.487 5.83568L23.0699 5.35205L21.5017 4.83002C21.4057 4.79743 21.3024 4.7933 21.2041 4.81829L19.2216 5.31366L18.3524 5.02412L18.9966 3.73585H20.7999C20.8826 3.73592 20.9642 3.71679 21.0383 3.67986L22.8832 2.75739C24.1538 3.42058 25.3226 4.26254 26.354 5.25767ZM10.1605 2.26043L11.4403 3.11358C11.5032 3.15544 11.5743 3.18343 11.6488 3.1957L14.2328 3.62654L13.9806 4.38105L12.6342 4.83056C12.5136 4.87068 12.4113 4.95253 12.3457 5.06144L10.8143 7.61344L8.35453 9.0894L4.72861 9.60716C4.4658 9.64429 4.27038 9.86911 4.27004 10.1345V11.7342C4.27004 11.8756 4.3263 12.0112 4.42628 12.1112L5.33649 13.0214V13.9375L3.11828 12.4583L2.31365 10.0444C3.84453 6.54647 6.65041 3.76305 10.1605 2.26043ZM8.64247 19.7432L6.2323 19.2606L5.33649 17.4738V16.2207L7.32327 14.2339L8.05859 15.7051C8.1489 15.8859 8.33373 16 8.53582 16H11.9666L13.4111 18.4075C13.5075 18.5679 13.6809 18.666 13.868 18.6661H15.3504L14.9771 20.5361L12.9584 22.5549C12.8582 22.6548 12.8018 22.7903 12.8016 22.9319V24.2649L10.882 25.7046C10.7478 25.8053 10.6687 25.9634 10.6687 26.1312V28.0572L10.0054 27.8375L9.06904 25.4956V20.2657C9.06911 20.0123 8.89075 19.7938 8.64247 19.7432ZM7.0396 27.9402C2.01205 24.1684 -0.114111 17.6514 1.72177 11.6403L2.16488 12.9691C2.20221 13.0816 2.27592 13.1784 2.37444 13.2443L5.03255 15.0162L4.42628 15.623C4.3263 15.723 4.27004 15.8585 4.27004 16V17.5996C4.26998 17.6823 4.28911 17.7639 4.32603 17.838L5.39248 19.9709C5.46633 20.1182 5.6041 20.2231 5.76573 20.2551L8.00526 20.7024V25.598C8.0052 25.6657 8.01806 25.7329 8.04312 25.7958L9.10957 28.4619C9.16796 28.6075 9.28753 28.7201 9.43643 28.7696L11.0361 29.3028C11.0896 29.3209 11.1455 29.3302 11.2019 29.3305C11.4964 29.3305 11.7352 29.0918 11.7352 28.7973V26.3978L13.6548 24.9581C13.789 24.8574 13.868 24.6993 13.868 24.5315V23.1526L15.8447 21.176C15.919 21.1015 15.9697 21.0067 15.9903 20.9035L16.5235 18.2374C16.5812 17.9486 16.3939 17.6677 16.1051 17.61C16.0708 17.6031 16.0359 17.5996 16.0009 17.5996H14.1698L12.7253 15.1921C12.629 15.0317 12.4555 14.9336 12.2684 14.9335H8.86535L7.94928 13.0955C7.87256 12.9421 7.72672 12.8349 7.55736 12.8076C7.38806 12.7783 7.21523 12.8342 7.09505 12.9569L6.40293 13.6463V12.8006C6.40293 12.6592 6.34668 12.5236 6.2467 12.4236L5.33649 11.5134V10.5968L8.61154 10.1292C8.68186 10.119 8.74951 10.0949 8.81043 10.0583L11.4765 8.4586C11.5513 8.41368 11.614 8.35102 11.6589 8.27624L13.1573 5.77916L14.5698 5.30779C14.7293 5.25547 14.8544 5.13036 14.9068 4.97079L15.44 3.37113C15.5324 3.09152 15.3806 2.78992 15.101 2.69753C15.0752 2.689 15.0487 2.68247 15.0219 2.67794L11.9356 2.16338L11.3934 1.80185C14.7489 0.709682 18.3832 0.844854 21.6483 2.18311L20.6741 2.66941H18.667C18.464 2.66827 18.2779 2.78265 18.1871 2.96428L17.1207 5.09717C16.9893 5.36071 17.0964 5.68091 17.36 5.81229C17.3824 5.82348 17.4056 5.83308 17.4294 5.84101L19.0291 6.37424C19.1251 6.40683 19.2284 6.41096 19.3266 6.38597L21.3092 5.8906L22.7617 6.37424C22.7825 6.3817 22.8038 6.38743 22.8256 6.3913L25.4918 6.92452C25.6304 6.95278 25.7746 6.92439 25.8922 6.8456L27.1058 6.03617C27.7031 6.70143 28.2398 7.41862 28.7098 8.17919L26.0863 9.05368L23.2458 8.58017L22.3074 7.17247C22.209 7.02497 22.0437 6.93605 21.8664 6.93518H18.667C18.5256 6.93518 18.39 6.99144 18.2901 7.09142L16.6904 8.69108C16.5716 8.80979 16.5157 8.97756 16.5395 9.14379L17.0727 12.8763C17.0996 13.0609 17.2209 13.218 17.3926 13.2907L21.1252 14.8903C21.2321 14.9366 21.3514 14.9462 21.4643 14.9175L23.3685 14.4414L24.5325 15.2188V17.0664C24.5316 17.1489 24.5498 17.2305 24.5858 17.3048L26.6654 21.458V23.4651C26.6654 23.6065 26.7216 23.7421 26.8216 23.8421L27.9371 24.9581C22.9899 31.5523 13.6338 32.8874 7.0396 27.9402Z" fill="#90FCF9"/>
</svg>
