<svg width="32" height="31" viewBox="0 0 32 31" fill="none" xmlns="http://www.w3.org/2000/svg">
<path d="M24.6488 30.5021C24.3499 30.5013 24.0519 30.4685 23.76 30.4044C18.2014 29.2545 13.0805 26.5585 8.98662 22.6266C4.9801 18.6861 2.20137 13.6689 0.986622 8.18215C0.843388 7.49833 0.878543 6.78917 1.08871 6.12287C1.29887 5.45658 1.67697 4.85558 2.18662 4.3777L5.74218 0.955479C5.92378 0.783735 6.13956 0.652217 6.37544 0.569508C6.61131 0.486799 6.86197 0.454759 7.11107 0.475479C7.36935 0.502424 7.61859 0.585624 7.84126 0.719229C8.06394 0.852834 8.25464 1.0336 8.39995 1.24881L12.8444 7.8177C13.0111 8.07258 13.0915 8.37423 13.0739 8.67826C13.0563 8.98229 12.9416 9.27264 12.7466 9.50659L10.5155 12.1733C11.4041 14.1399 12.6625 15.9173 14.2222 17.4088C15.7718 18.9544 17.6034 20.1885 19.6177 21.0444L22.3822 18.8488C22.6144 18.6653 22.8969 18.5568 23.1922 18.5378C23.4875 18.5187 23.7817 18.59 24.0355 18.7421L30.7466 23.0799C30.9769 23.2174 31.1731 23.4053 31.3205 23.6294C31.4679 23.8535 31.5627 24.108 31.5978 24.374C31.6328 24.6399 31.6073 24.9103 31.523 25.165C31.4387 25.4196 31.2979 25.6519 31.1111 25.8444L27.6444 29.2755C27.2506 29.6673 26.7832 29.9774 26.2691 30.188C25.755 30.3985 25.2044 30.5053 24.6488 30.5021ZM6.96884 2.23548L3.41329 5.6577C3.12658 5.92486 2.91434 6.26204 2.79745 6.63609C2.68056 7.01013 2.66305 7.40816 2.74662 7.79104C3.87615 12.9396 6.47259 17.6509 10.2222 21.3555C14.0748 25.0546 18.8938 27.5905 24.1244 28.671C24.5203 28.7538 24.9306 28.737 25.3184 28.6222C25.7063 28.5074 26.0595 28.2982 26.3466 28.0133L29.8133 24.5821L23.3333 20.3955L20.3644 22.7599C20.2507 22.8499 20.1168 22.9107 19.9743 22.937C19.8317 22.9634 19.6849 22.9544 19.5466 22.911C17.0815 22.0028 14.8475 20.561 13.0044 18.6888C11.098 16.9086 9.61829 14.7208 8.67551 12.2888C8.63563 12.1416 8.6343 11.9866 8.67166 11.8387C8.70903 11.6908 8.78382 11.555 8.88884 11.4444L11.2888 8.57326L6.96884 2.23548Z" fill="#90FCF9"/>
</svg>
